<svg width="100" height="100" viewBox="0 0 100 100" fill="none" xmlns="http://www.w3.org/2000/svg">
<path d="M71.6528 24.2073C78.8761 30.4293 89.3942 29.9214 92.689 33.8577C95.9839 37.6671 92.1822 45.7938 90.9149 54.3014C89.5209 62.682 90.9149 71.4436 87.4933 77.2847C84.1985 83.1257 76.0881 85.9193 67.4709 90.2366C58.7269 94.5539 49.3493 100.395 43.6467 96.9665C38.0708 93.665 36.17 81.221 28.5665 73.2213C20.8363 65.2216 7.53024 61.7932 7.02335 56.587C6.38972 51.5079 18.8087 44.651 25.3984 37.1592C32.1148 29.7944 33.0018 21.9217 37.3105 14.4299C41.4924 6.93811 48.9691 -0.172737 54.7984 2.62081C60.501 5.41435 64.4295 18.1123 71.6528 24.2073Z" fill="#EEDBAC"/>
</svg>
