<svg width="100" height="100" viewBox="0 0 100 100" fill="none" xmlns="http://www.w3.org/2000/svg">
<path d="M67.573 33.4165C72.2388 38.7259 75.9974 43.1289 82.089 48.8268C88.3101 54.5247 96.7346 61.3881 96.9938 67.7335C97.253 74.2084 89.347 80.1654 81.4409 82.7553C73.6645 85.3453 66.0177 84.4388 59.7965 84.6978C53.4458 85.0863 48.5207 86.5108 42.4292 86.8993C36.4672 87.2878 29.3388 86.6403 21.3032 83.4028C13.2675 80.1654 4.32465 74.3379 2.38054 66.9565C0.566041 59.7046 5.62072 50.7693 9.50894 40.9274C13.5268 31.215 16.2485 20.5962 23.1177 16.3227C29.9869 12.0493 40.7443 14.2507 49.0391 18.2652C57.2044 22.2796 62.9071 28.2365 67.573 33.4165Z" fill="#EEDBAC"/>
</svg>
