<svg width="100" height="100" viewBox="0 0 100 100" fill="none" xmlns="http://www.w3.org/2000/svg">
<path d="M65.8937 20.3841C74.4814 23.2801 85.1829 25.5178 91.921 32.0995C98.5269 38.6811 101.433 49.3434 99.3196 58.9526C97.3378 68.5619 90.3355 76.9864 82.0121 81.3303C73.8208 85.8058 64.1761 86.2007 55.9848 85.9374C47.7935 85.5425 41.1876 84.6211 35.5065 82.1201C29.8254 79.7507 25.0692 75.9333 22.1626 71.1945C19.256 66.4557 18.3311 60.9271 13.5749 53.5557C8.95074 46.0526 0.495179 36.9699 1.02365 30.2566C1.68424 23.675 11.1968 19.4627 19.9166 16.6984C28.5042 13.8025 36.2992 12.3545 43.4336 13.2759C50.7001 14.1974 57.306 17.4882 65.8937 20.3841Z" fill="#EEDBAC"/>
</svg>
