<svg width="100" height="100" viewBox="0 0 100 100" fill="none" xmlns="http://www.w3.org/2000/svg">
<path d="M79.8904 1.44218C89.0107 3.6067 95.67 13.1306 94.9462 22.943C94.0776 32.6112 85.8259 42.2794 84.9573 53.5349C83.9439 64.7903 90.4584 77.4888 87.8526 85.1368C85.3916 92.929 73.955 95.5265 63.0974 97.4024C52.2399 99.2783 41.9615 100.433 35.5917 95.3822C29.3667 90.3316 26.9057 79.0761 21.9836 71.1396C17.2063 63.203 9.96796 58.7297 6.92785 52.2361C3.88774 45.7426 4.75635 37.2288 7.36215 28.4265C9.82319 19.7684 13.8767 10.8217 20.8255 7.64713C27.7743 4.6168 37.7632 7.50283 48.476 6.20412C59.1887 4.90541 70.7701 -0.578032 79.8904 1.44218Z" fill="#EEDBAC"/>
</svg>
