<svg width="100" height="100" viewBox="0 0 100 100" fill="none" xmlns="http://www.w3.org/2000/svg">
<path d="M70.0677 11.631C79.5727 14.2623 92.5214 14.9547 93.899 20.2173C95.1387 25.4798 84.6695 35.4509 78.8839 42.9292C72.9605 50.5461 71.7208 55.5316 70.3433 64.8103C68.9657 73.9505 67.4504 87.3838 61.1138 93.4772C54.7772 99.7092 43.4815 98.7398 33.4255 95.1391C23.3696 91.6769 14.2779 85.5834 13.0381 76.8587C11.7983 67.9955 18.4105 56.6395 16.8952 46.2529C15.3799 35.8664 5.59947 26.7262 6.01272 20.4942C6.42598 14.4008 16.8952 11.3541 25.7114 8.30733C34.5275 5.2606 41.5529 2.21387 48.1651 3.18329C54.6394 4.01421 60.7006 8.86128 70.0677 11.631V11.631Z" fill="#EEDBAC"/>
</svg>
