<svg width="100" height="100" viewBox="0 0 100 100" fill="none" xmlns="http://www.w3.org/2000/svg">
<path d="M69.9964 19.0963C79.5054 20.9301 93.901 19.4893 97.2027 23.9427C100.504 28.3961 92.8444 38.6128 87.1654 46.2098C81.3544 53.6758 77.6564 58.6532 73.6943 64.0235C69.8643 69.2628 66.0343 75.1571 59.4308 81.1823C52.9594 87.2075 43.7146 93.3637 38.6959 90.0891C33.5452 86.8146 32.3566 73.8472 25.3569 65.9883C18.3572 58.1293 5.41442 55.2476 1.98062 49.3534C-1.45319 43.4592 4.75407 34.6833 10.9613 27.6102C17.0365 20.6681 23.2438 15.5598 29.9793 12.4162C36.5828 9.27258 43.8466 7.96275 49.7898 9.92749C55.7329 11.8922 60.3553 17.1316 69.9964 19.0963Z" fill="#EEDBAC"/>
</svg>
