<svg width="100" height="100" viewBox="0 0 100 100" fill="none" xmlns="http://www.w3.org/2000/svg">
<g clip-path="url(#clip0_4_2)">
<path d="M86.2356 13.0523C92.534 19.0689 96.399 26.6612 98.403 34.1102C100.407 41.7025 100.55 49.1515 98.6893 55.5978C96.8284 62.1873 92.8203 67.7741 88.0965 72.2149C83.3727 76.6556 77.9332 79.8072 71.0622 85.1074C64.048 90.551 55.6024 98 48.0157 98C40.4289 98 33.5579 90.4077 24.5397 82.9587C15.3784 75.6529 4.06993 68.4904 0.920719 59.0358C-2.22849 49.5813 3.06791 37.8347 11.2272 30.5289C19.3865 23.3664 30.695 20.6446 39.8563 15.9174C49.0177 11.0468 56.0318 4.1708 63.9049 3.16805C71.6347 2.02204 80.0804 6.89256 86.2356 13.0523Z" fill="#EEDBAC"/>
</g>
<defs>
<clipPath id="clip0_4_2">
<rect width="100" height="100" fill="white"/>
</clipPath>
</defs>
</svg>
