<svg width="100" height="100" viewBox="0 0 100 100" fill="none" xmlns="http://www.w3.org/2000/svg">
<path d="M80.2081 3.15009C90.2835 4.18195 99.3217 12.2895 97.84 21.5762C96.3583 30.863 84.2086 41.1817 79.7636 50.4684C75.1704 59.7552 77.9856 68.1575 75.7631 73.7591C73.5406 79.3606 66.1322 82.1614 57.6867 86.8785C49.3893 91.5956 40.2029 98.3764 32.9427 96.7549C25.6825 95.2808 20.4967 85.6992 17.8297 77.0021C15.1626 68.1575 15.1626 60.4923 11.1621 51.5003C7.16161 42.5083 -0.839423 32.3371 1.38309 26.5882C3.6056 20.8392 16.0517 19.3651 25.3862 18.0384C34.8689 16.7117 41.3883 15.3851 50.1301 11.6998C58.872 8.01459 70.1327 1.97082 80.2081 3.15009Z" fill="#EEDBAC"/>
</svg>
