<svg width="100" height="100" viewBox="0 0 100 100" fill="none" xmlns="http://www.w3.org/2000/svg">
<path d="M78.0098 12.9141C83.87 15.9183 89.0154 20.496 92.5887 26.3612C96.019 32.2264 97.8771 39.3791 96.5907 45.8165C95.1614 52.2539 90.7306 57.9761 86.1568 64.1274C81.4401 70.2787 76.8664 76.7161 69.0053 84.298C61.287 91.8798 50.4244 100.606 42.4203 98.7464C34.4162 96.8867 29.1278 84.441 22.4101 74.4272C15.6924 64.4135 7.54542 56.9747 4.40097 47.6762C1.39948 38.3777 3.40046 27.2195 8.68886 18.3502C13.9773 9.48086 22.5531 2.90039 31.5576 1.3268C40.7051 -0.103739 50.1385 3.47261 58.1426 6.04757C66.0037 8.62254 72.2926 10.0531 78.0098 12.9141Z" fill="#EEDBAC"/>
</svg>
