<svg width="100" height="100" viewBox="0 0 100 100" fill="none" xmlns="http://www.w3.org/2000/svg">
<g clip-path="url(#clip0_4_8)">
<path d="M73.9917 2.68126C82.1822 3.83419 87.9299 13.2018 92.2406 23.1459C96.6951 32.9458 99.8563 43.3222 100 54.2751C100 65.228 96.8388 76.7574 88.792 81.6573C80.8889 86.5573 67.9566 84.8279 56.6049 88.575C45.1096 92.322 35.0511 101.401 27.8665 99.8161C20.6819 98.0867 16.3711 85.5485 15.3653 75.3162C14.3594 64.9398 16.6585 56.8692 13.4973 48.3663C10.336 39.8634 1.85818 30.9282 0.277568 21.2723C-1.30305 11.6165 4.01357 1.24009 12.4914 0.0871511C20.9693 -0.921668 32.4646 7.14888 43.6726 7.72535C54.8806 8.30182 65.8012 1.3842 73.9917 2.68126Z" fill="#EEDBAC"/>
</g>
<defs>
<clipPath id="clip0_4_8">
<rect width="100" height="100" fill="white"/>
</clipPath>
</defs>
</svg>
